<?xml version="1.0" encoding="UTF-8"?>
<svg id="Layer_1" data-name="Layer 1" xmlns="http://www.w3.org/2000/svg" xmlns:xlink="http://www.w3.org/1999/xlink" viewBox="0 0 393.6 150">
  <defs>
    <style>
      .cls-1 {
        fill: none;
      }

      .cls-2 {
        fill: #ffbd00;
      }

      .cls-3 {
        fill: #16474e;
      }

      .cls-4 {
        fill: #073236;
      }

      .cls-5 {
        fill: #ffd060;
      }

      .cls-6 {
        fill: #00aaa8;
      }

      .cls-7 {
        fill: #e4e5e6;
      }

      .cls-8, .cls-9 {
        fill: #fff;
      }

      .cls-10 {
        fill: #6ecece;
      }

      .cls-11 {
        fill: #009691;
      }

      .cls-9 {
        filter: url(#drop-shadow-1);
      }

      .cls-12 {
        fill: #f29b00;
      }

      .cls-13 {
        fill: #115071;
        font-family: Assistant-Regular, Assistant;
        font-size: 30.23px;
      }

      .cls-14 {
        fill: #196167;
      }

      .cls-15 {
        clip-path: url(#clippath);
      }

      .cls-16 {
        fill: #196167;
      }
    </style>
    <filter id="drop-shadow-1" x="0" y="0" width="393.6" height="150" filterUnits="userSpaceOnUse">
      <feOffset dx="0" dy="0"/>
      <feGaussianBlur result="blur" stdDeviation="4.93"/>
      <feFlood flood-color="#000" flood-opacity=".4"/>
      <feComposite in2="blur" operator="in"/>
      <feComposite in="SourceGraphic"/>
    </filter>
    <clipPath id="clippath">
      <rect class="cls-1" x="69.95" y="36.69" width="73.66" height="69.74"/>
    </clipPath>
  </defs>
  <rect class="cls-9" x="15" y="14.95" width="363.53" height="119.93" rx="15.4" ry="15.4"/>
  <text class="cls-13" transform="translate(206.85 82.26)"><tspan x="0" y="0">בוט חילוץ</tspan></text>
  <g class="cls-15">
    <g>
      <rect class="cls-14" x="99.37" y="88.99" width="9.93" height="9.22"/>
      <path class="cls-3" d="M109.3,88.99h-9.93v2.85s7.42-.86,9.91,4.74l.02-7.6Z"/>
      <path class="cls-14" d="M120.17,91.35h-29.66c-4.84,0-8.77-3.93-8.77-8.77v-18.15c0-4.84,3.93-8.77,8.77-8.77h29.66c3.43,0,3.87,2.66,5.31,5.52.6,1.18,3.46,1.83,3.46,3.24v18.15c0,4.84-3.93,8.77-8.77,8.77Z"/>
      <path class="cls-8" d="M88.82,90.56c-4.4,0-7.99-3.58-7.99-7.99v-18.15c0-.86.56-1.32,1.56-2.08.57-.43,1.16-.88,1.63-1.49.36-.47.69-.96,1-1.43,1.23-1.85,2.08-2.99,3.8-2.99h29.66c4.4,0,7.99,3.58,7.99,7.99v18.15c0,4.4-3.58,7.99-7.99,7.99h-29.66Z"/>
      <path class="cls-3" d="M118.47,57.22c3.97,0,7.2,3.23,7.2,7.2v18.15c0,3.97-3.23,7.2-7.2,7.2h-29.66c-3.97,0-7.2-3.23-7.2-7.2v-18.15c0-.44.28-.72,1.25-1.45.58-.44,1.24-.94,1.78-1.64.38-.49.71-.99,1.03-1.48,1.15-1.73,1.82-2.64,3.14-2.64h29.66M118.47,55.66h-29.66c-2.84,0-3.82,2.64-5.42,4.73-1.13,1.48-3.35,2.04-3.35,4.04v18.15c0,4.84,3.93,8.77,8.77,8.77h29.66c4.84,0,8.77-3.93,8.77-8.77v-18.15c0-4.84-3.93-8.77-8.77-8.77h0Z"/>
      <path class="cls-7" d="M124.14,75.46v6.59c0,3.56-2.89,6.45-6.45,6.45h-12.08"/>
      <rect class="cls-16" x="81.6" y="73.47" width="45.68" height="2.61"/>
      <rect class="cls-3" x="80.01" y="72.34" width="47.23" height="2.61"/>
      <rect class="cls-14" x="81.74" y="97.64" width="47.2" height="35.69" rx="12.59" ry="12.59"/>
      <rect class="cls-3" x="80.05" y="97.64" width="47.2" height="35.69" rx="12.17" ry="12.17"/>
      <rect class="cls-14" x="86.5" y="65.91" width="35.59" height="16.13" rx="5.27" ry="5.27"/>
      <rect class="cls-3" x="85.85" y="65.29" width="35.59" height="16.13" rx="8.06" ry="8.06"/>
      <rect class="cls-11" x="110.87" y="69.13" width="3.93" height="8.46" rx="1.97" ry="1.97"/>
      <rect class="cls-11" x="94.03" y="69.13" width="3.93" height="8.46" rx="1.97" ry="1.97"/>
      <path class="cls-14" d="M128.74,81.81h0c-.75,0-1.37-.61-1.37-1.37v-13c0-.75.61-1.37,1.37-1.37h0c1.61,0,2.91,1.3,2.91,2.91v9.92c0,1.61-1.3,2.91-2.91,2.91Z"/>
      <path class="cls-3" d="M79.69,81.81h0c.75,0,1.37-.61,1.37-1.37v-13c0-.75-.61-1.37-1.37-1.37h0c-1.61,0-2.91,1.3-2.91,2.91v9.92c0,1.61,1.3,2.91,2.91,2.91Z"/>
      <rect class="cls-6" x="110.1" y="69.13" width="3.93" height="8.46" rx="1.97" ry="1.97"/>
      <rect class="cls-6" x="93.26" y="69.13" width="3.93" height="8.46" rx="1.97" ry="1.97"/>
      <path class="cls-10" d="M112.06,69.62h-.62c-.48,0-.88.39-.88.88v1"/>
      <path class="cls-10" d="M95.22,69.62h-.62c-.48,0-.88.39-.88.88v1"/>
      <path class="cls-12" d="M110.46,131.55v-34.8l6.01-.03c.61.02,1.15.04,1.74.1v.03c.23,1.74.73,3.41,1.35,5.05,1.07,2.82,2.15,5.64,3.22,8.46,1.46,3.85,2.93,7.7,4.57,11.47.62,1.42,1.27,2.85,2.31,4-.79,2.07-2.95,3.2-5.05,3.9-1.98.66-4.01,1.17-6.05,1.62-2.75.6-5.29.19-8.11.19Z"/>
      <rect class="cls-2" x="111.34" y="96.46" width="2" height="34.42"/>
      <path class="cls-2" d="M124.48,122.17c-5.28-7.15-9.58-25.09-9.73-25.72h1.84s.93,3.44,2.47,8c2.02,5.99,4.87,13.78,6.94,16.59l-1.52,1.12Z"/>
      <path class="cls-12" d="M98.43,131.55v-34.8l-6.01-.03c-.61.02-1.15.04-1.74.1v.03c-.23,1.74-.73,3.41-1.35,5.05-1.07,2.82-2.15,5.64-3.22,8.46-1.46,3.85-2.93,7.7-4.57,11.47-.62,1.42-1.27,2.85-2.31,4,.79,2.07,2.95,3.2,5.05,3.9,1.98.66,4.01,1.17,6.05,1.62,2.75.6,5.29.19,8.11.19Z"/>
      <rect class="cls-2" x="95.55" y="96.46" width="2" height="34.42"/>
      <path class="cls-2" d="M84.59,121.51c5.28-7.15,9.39-24.43,9.54-25.06h-1.84s-.93,3.44-2.47,8c-2.02,5.99-4.68,13.12-6.76,15.93l1.52,1.12Z"/>
      <path class="cls-4" d="M119.08,68.65c-1.03,0-2.04-.11-3.03-.21-.74-.08-1.44-.15-2.14-.18-2.4-.11-4.84-.18-7.25-.2-5.22-.05-10.49.13-15.67.5-.96.07-2.41.18-3.64-.83-.16-.13-.36-.29-.53-.51-.05-.06-.09-.12-.12-.18-.92-.03-1.86-.01-2.77,0-.26,0-.53,0-.79,0-.08,0-.16,0-.24,0-.35,0-.75.02-1.16-.06-.34-.07-.61-.24-.83-.38-.07-.05-.18-.12-.23-.13,0,0,.05.02.12.02l-.03-1.86c.48,0,.86.24,1.14.41.07.04.17.11.21.13.21.04.46.03.73.02.09,0,.18,0,.27,0,.26,0,.53,0,.79,0,1.03-.01,2.1-.03,3.16.01.14-.01.4-.03.67.12.35.2.48.53.57.75,0,.02.01.03.02.05.05.06.14.12.22.19.55.45,1.19.49,2.32.41,5.23-.38,10.56-.55,15.82-.51,2.43.02,4.89.09,7.32.2.76.04,1.52.12,2.25.19,1.37.14,2.66.28,3.95.15.43-.05.91-.12,1.27-.34.37-.23.66-.66.89-1.05l.27-.46h3.61c.15,0,.31,0,.46,0,.16,0,.32,0,.49,0,.31,0,.81-.11.95-.19.48-.38.92-.62,1.6-.59l-.08,1.86c-.1,0-.13,0-.37.19-.69.56-2.07.58-2.09.58-.18,0-.36,0-.53,0-.14,0-.29,0-.42,0h-2.57c-.3.44-.69.9-1.22,1.23-.67.42-1.41.54-2.05.61-.44.05-.88.07-1.32.07ZM82.13,65.17h0Z"/>
      <path class="cls-3" d="M81.77,65.82c-.44-.08-.84-.23-1.18-.46-.55-.35-.88-.79-1-1.32-.07-.29-.06-.58.04-.87.03-.11.09-.21.13-.32.14-.3.27-.61.42-.9.24-.49.71-.81,1.38-.97.12-.03.25-.04.37-.06.03,0,.06,0,.09,0,.06,0,.07-.02.07-.06,0-.02,0-.04,0-.07.02-.24.04-.48.07-.72.03-.25.07-.49.11-.74.04-.26.09-.51.15-.77.13-.59.29-1.17.48-1.75.47-1.42,1.13-2.79,1.98-4.11.74-1.13,1.61-2.21,2.64-3.21.6-.58,1.24-1.12,1.93-1.64,1.06-.8,2.21-1.51,3.45-2.15,1.62-.82,3.35-1.47,5.22-1.93.42-.1.84-.2,1.26-.28.08-.02.14-.04.2-.09.51-.43,1.15-.71,1.91-.83.22-.04.44-.06.66-.06,1.85,0,3.69,0,5.54,0,.91,0,1.69.26,2.35.72.08.05.15.11.22.17.05.05.11.07.19.09.31.06.62.13.93.2,1.88.44,3.63,1.07,5.27,1.88,1.34.66,2.57,1.41,3.7,2.26,1.7,1.27,3.09,2.7,4.2,4.28.91,1.29,1.62,2.65,2.16,4.05.25.66.46,1.33.63,2.01.1.42.19.83.26,1.25.08.47.14.95.18,1.43,0,.01,0,.02,0,.03,0,.02.02.03.05.04.08.01.17.02.25.03.78.11,1.32.43,1.6.97.2.39.37.78.55,1.18.06.12.08.25.09.38.05.49-.08.96-.45,1.38-.4.47-.96.79-1.68.94-.02,0-.05.01-.07.02-.02,0-.05,0-.07,0-.08.02-.17.03-.25.04-.24.02-.48.02-.73.02-1.46,0-2.91,0-4.37,0-.04,0-.07,0-.11,0-.06,0-.1,0-.12.05-.02.03-.05.06-.08.1-.1.12-.2.25-.31.37-.39.42-.91.71-1.57.87-.07.02-.14.03-.21.03-.2,0-.39,0-.59,0-.31,0-.62-.02-.92-.04-.3-.02-.6-.04-.91-.06-.21-.01-.41-.02-.62-.03-.34-.02-.69-.04-1.03-.06-.32-.02-.64-.03-.95-.04-.36-.02-.73-.03-1.09-.04-.4-.02-.8-.03-1.2-.04-.49-.02-.98-.03-1.47-.04-.28,0-.57,0-.85-.02-.37-.01-.75-.02-1.12-.02-.41,0-.82-.01-1.23-.02-.88-.01-1.76-.02-2.64-.02-.79,0-1.59,0-2.38,0-.66,0-1.32,0-1.99.02-.63.02-1.25.02-1.88.03-.48,0-.96.03-1.44.04-.37.01-.75.02-1.12.03-.02,0-.04,0-.06,0-.31.01-.62.02-.92.04-.27.01-.54.02-.8.03-.18,0-.36.01-.54.02-.24.01-.48.02-.73.04-.22.01-.43.02-.65.03-.16,0-.31.02-.47.02-.2.01-.39.02-.59.03-.19.01-.37.02-.56.03-.14,0-.27.02-.41.03-.18.01-.36.03-.54.04-.32.02-.65,0-.97,0-.11,0-.22-.01-.33-.04-.69-.18-1.22-.51-1.61-.97-.09-.11-.18-.21-.26-.32-.04-.06-.09-.08-.18-.07-.03,0-.06,0-.09,0-1.46,0-2.92,0-4.38,0-.34,0-.68-.01-1.01-.06ZM89.87,48.91h0s-.04.01-.05.03c-.12.08-.22.17-.33.26-.86.72-1.62,1.49-2.29,2.3-.02.02-.03.04-.05.06-.01.02,0,.03.01.04.02.01.04.02.06.03.21.1.42.19.63.29.31.14.61.29.88.48.72.49,1.22,1.07,1.5,1.76.15.37.22.74.22,1.13,0,1.57,0,3.14,0,4.71,0,.04,0,.07,0,.11,0,.03.02.05.07.05.14,0,.28-.02.42-.02.27-.02.54-.03.82-.05.05,0,.1,0,.15,0,.33-.02.66-.04,1-.06.28-.02.56-.03.85-.04.42-.02.85-.03,1.27-.05.04,0,.07,0,.11,0,.26-.01.52-.03.79-.04.32-.01.65-.02.97-.03.05,0,.09-.01.14,0,.08,0,.13-.03.16-.08.12-.18.21-.37.28-.56.04-.1.08-.21.09-.32.03-.32.06-.64.09-.95.02-.22.04-.44.06-.66.02-.25.04-.5.06-.75.01-.18.03-.37.04-.55,0-.01,0-.02,0-.03.02-.18.04-.35.05-.53.01-.18.02-.36.04-.53.01-.12.02-.24.03-.37.03-.28.05-.56.08-.84.02-.23.04-.45.06-.68.02-.25.04-.5.06-.75.01-.18.03-.37.04-.55,0-.01,0-.02,0-.03.02-.17.03-.33.05-.5.02-.18.02-.36.04-.54.01-.13.02-.25.03-.38.02-.17.03-.33.05-.5.02-.18.02-.36.04-.53.01-.12.02-.24.03-.37.03-.28.05-.56.08-.84.02-.23.04-.47.06-.7.02-.24.04-.49.06-.73.02-.23.04-.47.06-.7.02-.24.04-.48.06-.72.01-.16.02-.33.06-.49,0-.04-.01-.05-.07-.04-.04,0-.08.02-.11.03-1.01.25-1.99.56-2.93.93-.86.33-1.68.71-2.47,1.13-.49.26-.96.53-1.41.82-.24.15-.48.31-.71.47-.4.27-.78.56-1.15.85-.02.01-.03.03-.04.05h0s-.03.01-.03.02ZM82.11,64.92h.01s.01,0,.01,0c.03,0,.06.02.09.02.23.02.46,0,.69-.05.14-.04.26-.09.39-.14.25-.09.48-.2.74-.28.49-.15.99-.23,1.52-.23.19,0,.37.02.56.04.45.05.87.17,1.26.34.44.2.79.47,1.07.79.12.14.23.29.35.43.18.21.43.37.73.49.1.04.2.06.3.05.06,0,.12,0,.18,0,.28,0,.56-.01.83-.03.12,0,.24-.02.36-.02.04,0,.07,0,.1-.02.05,0,.1,0,.15,0,.11,0,.22,0,.33-.02.02,0,.03,0,.05,0,.31-.02.63-.03.94-.05.02,0,.04,0,.06,0,.18,0,.36-.02.54-.02.48-.02.97-.05,1.45-.07.58-.02,1.15-.05,1.73-.07.46-.02.93-.03,1.39-.04.58-.02,1.16-.03,1.74-.04.87-.02,1.75-.03,2.62-.04.76,0,1.52-.01,2.28-.01,1.06,0,2.11,0,3.17.02.49,0,.97.01,1.46.02.31,0,.62,0,.93.01.71.02,1.42.04,2.14.06.36,0,.72.02,1.08.03.21,0,.42.01.64.02.43.02.86.04,1.29.06.4.02.8.03,1.2.05.17,0,.34.02.51.03.34.02.68.04,1.01.06.35.02.7.04,1.04.06.18.01.36.02.54.03.16,0,.32,0,.49,0,.08,0,.15-.01.22-.03.42-.14.71-.37.91-.67.08-.09.15-.17.23-.26.34-.4.79-.71,1.38-.91.56-.2,1.16-.28,1.78-.24.42.02.83.09,1.22.21.22.07.44.16.65.24.12.05.25.1.38.14.46.15.91.14,1.35-.04.26-.1.46-.25.61-.42.3-.35.37-.72.19-1.12-.1-.23-.21-.45-.31-.67-.05-.12-.1-.23-.16-.35-.1-.2-.29-.33-.57-.38-.19-.03-.39-.06-.58-.07-.1-.01-.21-.03-.31-.04-.3-.03-.6-.07-.9-.1-.31-.03-.63-.07-.95-.1-.35-.04-.7-.07-1.05-.1-.2-.02-.39-.04-.59-.05-.3-.03-.59-.05-.89-.08-.23-.02-.45-.04-.68-.05-.34-.03-.67-.05-1.01-.08-.26-.02-.52-.04-.79-.05-.44-.03-.89-.06-1.33-.09-.14,0-.27-.02-.41-.02-.32-.02-.63-.04-.95-.06-.36-.02-.73-.04-1.09-.05-.17,0-.34-.02-.51-.02-.23-.01-.46-.02-.7-.03-.27-.01-.55-.02-.82-.03-.21-.01-.42-.01-.64-.02-.28-.01-.56-.02-.83-.03-.39-.01-.79-.02-1.18-.03-.03,0-.05,0-.08,0-.31-.02-.62-.02-.92-.02-.03-.02-.07-.01-.1-.01-.32,0-.64-.02-.96-.02-.37,0-.73-.01-1.1-.02-.02,0-.04,0-.06.01-.07-.01-.15-.02-.23-.02-.19,0-.38,0-.58,0-.3,0-.6,0-.89,0-.02,0-.05,0-.07,0-.29,0-.58,0-.86,0-.88,0-1.76,0-2.63,0-.77.01-1.53,0-2.3.03-.16,0-.31,0-.47.01-.15-.01-.3,0-.45,0-.7.01-1.4.03-2.1.05-.35.01-.7.02-1.04.03-.22,0-.44.01-.67.02-.44.02-.89.04-1.33.06-.26.01-.51.02-.77.03-.18,0-.35.02-.53.02-.24.01-.48.03-.73.04-.18,0-.36.02-.54.03-.32.02-.63.04-.95.06-.3.02-.6.03-.91.05-.04,0-.09.01-.13.02-.03,0-.05,0-.08,0-.2.01-.39.03-.59.04-.36.02-.71.05-1.07.07-.12,0-.24.02-.36.03-.23.02-.46.04-.69.06-.22.02-.44.03-.66.05-.37.03-.74.07-1.11.1-.35.03-.69.06-1.04.1-.48.05-.97.1-1.45.16-.09.01-.18,0-.27.04-.05,0-.09,0-.14,0-.28.03-.57.07-.85.1-.34.04-.57.18-.68.42-.16.34-.32.69-.48,1.03-.02.03-.03.07-.04.11-.1.41.02.78.38,1.1.21.18.46.32.78.39.03.02.08.03.12.02ZM88.29,60.31c.24-.02.47-.03.71-.05.06,0,.07-.01.07-.05,0-.03,0-.07,0-.1,0-1.56,0-3.12,0-4.68,0-.36-.04-.71-.13-1.06-.14-.58-.41-1.13-.82-1.64-.27-.34-.59-.65-.99-.92-.04-.03-.09-.06-.15-.09-.05.05-.08.1-.11.15-.18.27-.37.54-.55.8-.11.16-.21.31-.31.47-.02.03-.05.06-.05.09-.01.02-.03.03-.04.05-.16.24-.3.49-.45.74-.44.78-.82,1.59-1.13,2.4-.19.5-.35,1-.49,1.51-.11.4-.2.79-.28,1.19-.06.3-.11.61-.15.91-.01.11-.03.23-.05.34-.01.11-.02.22-.03.33,0,.03.02.04.05.04.06,0,.12-.01.18-.02.34-.03.67-.07,1.01-.1.25-.03.5-.05.75-.07.29-.03.58-.05.87-.08.21-.02.41-.04.62-.05.23-.02.46-.04.69-.06.22-.02.43-.04.65-.05.04,0,.07,0,.1,0ZM122.49,51.69s.09-.03.13-.05c.14-.07.13-.05.05-.15-.91-1.11-1.99-2.12-3.23-3.05-.6-.45-1.24-.87-1.91-1.27-1.28-.76-2.66-1.4-4.15-1.92-.71-.25-1.43-.46-2.18-.64-.04,0-.07-.03-.12-.01-.02.02,0,.04,0,.05.01.08.03.15.04.23.01.13.02.26.03.39,0,.03.01.05.02.08,0,.11,0,.21.01.32.02.21.04.41.05.62.01.15.02.3.04.44.03.28.05.56.08.84.02.18.03.37.04.55.01.13.02.26.03.39.03.28.05.57.08.85.02.18.03.37.04.55.01.13.02.26.03.39.03.28.05.57.08.85.02.18.03.35.04.53,0,.13.02.25.03.38.03.29.05.58.08.86.02.18.03.35.04.53.01.13.02.26.03.39.03.29.05.58.08.86.02.18.03.35.04.53,0,.13.02.25.03.38.03.28.05.57.08.85.02.18.03.36.04.54,0,.11.02.22.03.33,0,.03.01.06.02.09,0,.03,0,.05,0,.08.01.15.02.3.04.45.01.17.02.34.04.51.01.11.01.23.03.34.05.33.19.64.38.93.03.05.08.08.15.08.02,0,.04,0,.06,0,.25,0,.49.01.74.02.3.01.61.02.91.03.03,0,.05,0,.08,0,.17.01.33.02.5.01.26.03.52.02.78.04.23.02.45.02.68.03.19,0,.38.02.57.03.23.01.46.02.69.03.05.02.11.01.16.02.2.01.39.02.59.03.21.01.42.03.63.04.06,0,.13.03.17,0,.04-.03.01-.09.02-.13,0-.03,0-.05,0-.08,0-1.57,0-3.15,0-4.72,0-.22.02-.44.08-.65.12-.47.35-.92.69-1.33.34-.41.78-.76,1.3-1.06.2-.12.43-.21.64-.31.11-.05.24-.1.34-.16ZM122.05,52.41s-.08.07-.11.11c-.37.4-.64.84-.82,1.31-.12.3-.2.6-.25.9-.04.23-.06.46-.05.69,0,.15,0,.3,0,.44,0,1.42,0,2.84,0,4.26,0,.03,0,.07,0,.1,0,.04.01.05.06.05.15.01.29.02.44.03.24.02.48.04.72.06.23.02.45.03.68.05.31.03.61.05.92.08.28.02.56.05.84.07.26.02.51.05.77.07.42.04.83.09,1.25.13,0,0,.01,0,.01,0,0,0,0,0,.02-.02,0-.07,0-.15-.02-.23-.03-.27-.07-.53-.11-.8-.04-.3-.1-.6-.16-.9-.11-.49-.23-.97-.38-1.45-.33-1.06-.77-2.1-1.32-3.11-.46-.85-1.04-1.66-1.6-2.48-.01-.02-.02-.04-.06-.04-.02,0-.04.02-.06.03-.29.18-.53.39-.75.62,0,0-.01.02-.02.03ZM103.08,43.44s-.04,0-.06,0c-.29,0-.58,0-.86,0-.11,0-.21,0-.32.02-.6.09-1.07.31-1.43.67-.27.27-.39.58-.42.91-.02.23-.04.47-.06.7-.02.24-.04.48-.06.72-.02.24-.04.47-.06.71-.02.24-.04.47-.06.71-.02.24-.04.48-.06.72-.02.23-.04.47-.06.7-.02.24-.04.48-.06.72-.02.24-.04.49-.06.73-.02.23-.04.47-.06.7-.02.24-.04.48-.06.72-.02.23-.04.46-.06.69-.02.24-.04.48-.06.72-.02.24-.04.47-.06.71-.02.24-.04.47-.06.71-.02.24-.04.48-.06.72-.02.19-.03.38-.04.58,0,.01,0,.03,0,.04-.02.17-.03.33-.05.5-.02.18-.02.36-.04.54-.02.13-.02.25-.03.38-.02.18-.04.35-.05.53-.01.17-.02.35-.04.52-.02.17-.05.35-.11.52-.05.14-.1.28-.16.42-.02.04,0,.05.05.04.38-.01.76,0,1.14-.03.09,0,.1,0,.12-.07,0-.01,0-.02,0-.03.01-.16.02-.31.03-.47.02-.27.04-.53.06-.8.02-.29.04-.58.06-.87,0-.13.01-.25.03-.38.03-.29.04-.58.07-.88.02-.27.04-.53.06-.8.02-.3.04-.6.06-.9.02-.23.03-.45.04-.68,0-.01,0-.02,0-.03.02-.18.03-.36.05-.54.02-.27.04-.53.06-.8.02-.29.04-.58.06-.87.02-.27.04-.54.06-.81.02-.28.04-.56.06-.84.02-.28.04-.55.06-.83.02-.28.04-.56.06-.84.02-.28.04-.56.06-.84.02-.28.04-.57.06-.85.02-.28.04-.55.06-.83.01-.22.03-.44.04-.65,0-.1.02-.21.06-.31.17-.35.5-.57,1.02-.63.02,0,.05-.01.07-.02.06,0,.11,0,.17,0,.85,0,1.71,0,2.56,0,.02,0,.05,0,.09.01-.03.01-.06.02-.08.02-.48.1-.96.19-1.45.29-.34.07-.67.14-1,.21-.16.03-.26.11-.33.21-.05.08-.08.16-.09.25-.02.21-.04.41-.05.62-.02.22-.03.44-.04.67-.01.15-.02.3-.03.45-.03.33-.05.67-.08,1-.02.21-.03.43-.04.64,0,.14-.02.29-.03.43-.02.24-.04.47-.05.71-.01.18-.02.36-.04.54-.03.34-.05.67-.08,1.01-.02.21-.03.43-.04.64-.01.16-.02.31-.03.47-.03.33-.05.66-.08.99-.02.22-.03.44-.04.65-.01.15-.02.3-.03.45-.03.34-.05.67-.08,1.01-.02.21-.03.42-.04.63,0,.15-.02.3-.03.44-.03.34-.05.68-.08,1.02-.02.21-.03.42-.04.63-.01.15-.02.3-.03.45-.02.31-.05.63-.07.94,0,.13-.02.12.16.12.37,0,.75,0,1.12-.01.75-.01,1.51-.01,2.26-.01,1.29,0,2.59,0,3.88.02.4,0,.8,0,1.2.02.1,0,.19,0,.29,0,0,0,.02,0,.03,0,.48.01.96.02,1.44.03.03,0,.05,0,.07,0,.02-.03,0-.05-.02-.07-.08-.17-.14-.35-.19-.53-.06-.2-.06-.4-.08-.6-.03-.3-.05-.61-.07-.91-.01-.13-.02-.25-.03-.38-.03-.3-.05-.6-.08-.9-.01-.17-.03-.34-.04-.51-.02-.28-.05-.57-.08-.85-.03-.3-.05-.61-.07-.91-.01-.13-.02-.27-.03-.4-.03-.3-.05-.59-.08-.89-.01-.17-.03-.35-.04-.52-.04-.4-.07-.81-.11-1.21-.02-.23-.04-.45-.06-.68-.03-.37-.06-.74-.09-1.11-.03-.34-.06-.69-.09-1.03-.03-.37-.06-.73-.09-1.1-.03-.3-.05-.61-.07-.91-.01-.13-.02-.26-.03-.39-.03-.29-.05-.58-.08-.88,0-.11-.03-.22-.06-.33-.25-.74-1.14-1.24-2.08-1.26-.29,0-.58,0-.86,0-.02,0-.05,0-.07,0-.06,0-.11,0-.17,0-1.13,0-2.26,0-3.39,0-.06,0-.11,0-.17,0Z"/>
      <path class="cls-2" d="M109.79,59.76c-.1,0-.19,0-.29,0-.4-.02-.8-.01-1.2-.02-1.29-.03-2.59-.02-3.88-.02-.75,0-1.51,0-2.26.01-.37,0-.75,0-1.12.01-.18,0-.17,0-.16-.12.02-.31.05-.63.07-.94.01-.15.02-.3.03-.45.01-.21.03-.42.04-.63.03-.34.05-.68.08-1.02.01-.15.02-.3.03-.44.01-.21.03-.42.04-.63.02-.34.05-.67.08-1.01.01-.15.02-.3.03-.45.01-.22.03-.44.04-.65.02-.33.05-.66.08-.99.01-.16.02-.31.03-.47.01-.21.03-.43.04-.64.02-.34.05-.67.08-1.01.01-.18.02-.36.04-.54.02-.24.04-.47.05-.71.01-.14.02-.29.03-.43.01-.21.03-.43.04-.64.02-.33.05-.67.08-1,.01-.15.02-.3.03-.45.01-.22.03-.44.04-.67.02-.21.03-.41.05-.62,0-.09.04-.17.09-.25.07-.11.17-.18.33-.21.33-.07.67-.14,1-.21.48-.1.96-.2,1.45-.29.02,0,.05-.01.08-.02-.03-.02-.06-.01-.09-.01-.85,0-1.71,0-2.56,0-.06,0-.11,0-.17,0-.01,0-.02,0-.03,0-.05,0-.06-.02-.04-.04,0,0,.01-.02.02-.03.09-.07.18-.15.27-.22.07-.05.15-.1.22-.15.12-.08.25-.15.38-.22.07-.03.13-.07.19-.1.06,0,.11,0,.17,0,1.13,0,2.26,0,3.39,0,.06,0,.11,0,.17,0,.02.01.05.03.07.04.16.07.32.14.47.22.4.22.75.47,1.02.79.23.27.38.55.46.86.06.24.08.48.1.73,0,.03,0,.07,0,.1.02.17.04.34.05.51.02.21.03.43.04.64,0,0,0,.01,0,.02.04.2.02.41.05.61.02.14.01.28.03.42.02.2.01.39.03.59.02.16.01.32.03.48.02.2.01.4.03.6.02.18.01.36.03.54.02.21.01.41.03.62.02.2.01.41.03.61.02.21.01.43.03.64.02.21,0,.43.03.64.02.22.01.44.03.67.02.23.01.45.03.68.02.24.01.49.03.73.02.23.01.46.03.69.02.28.01.56.03.84.02.24.01.47.03.71.02.33.03.65.04.98,0,.3.03.6.09.9.04.15.07.31.15.45Z"/>
      <path class="cls-2" d="M117.86,60.06c-.23,0-.46-.02-.69-.03-.19,0-.38-.02-.57-.03-.23-.01-.45-.02-.68-.03-.26-.02-.52-.01-.78-.04-.04-.02-.09-.05-.14-.07-.16-.07-.32-.14-.47-.22-.17-.09-.34-.19-.49-.3-.05-.04-.1-.08-.17-.11-.01,0-.02-.01-.03-.02-.11-.11-.26-.2-.37-.31-.11-.11-.22-.21-.33-.31-.11-.11-.21-.22-.31-.34-.14-.16-.27-.32-.38-.49-.06-.08-.11-.16-.16-.24-.02-.02-.03-.05-.06-.06,0-.03-.02-.06-.02-.09-.01-.11-.02-.22-.03-.33-.01-.18-.03-.36-.04-.54-.02-.28-.05-.57-.08-.85-.01-.13-.02-.25-.03-.38-.01-.18-.03-.35-.04-.53-.02-.29-.05-.58-.08-.86-.01-.13-.02-.26-.03-.39-.01-.18-.03-.35-.04-.53-.03-.29-.05-.58-.08-.86-.01-.13-.02-.25-.03-.38-.01-.18-.03-.35-.04-.53-.02-.28-.05-.57-.08-.85-.01-.13-.02-.26-.03-.39-.01-.18-.03-.37-.04-.55-.02-.28-.05-.57-.08-.85-.01-.13-.02-.26-.03-.39-.01-.18-.03-.37-.04-.55-.02-.28-.05-.56-.08-.84-.01-.15-.02-.3-.04-.44-.02-.21-.04-.41-.05-.62,0-.11-.01-.21-.01-.32.02,0,.05,0,.07.02.49.15.97.31,1.45.48.6.21,1.18.44,1.76.67.63.26,1.25.53,1.85.82.6.29,1.17.59,1.74.91.6.34,1.18.71,1.74,1.09.41.28.8.58,1.18.89.4.33.78.68,1.14,1.04.09.09.18.18.25.28-.05,0-.08.02-.13.03-.31.09-.61.18-.9.31-.28.12-.56.24-.81.38-.19.11-.37.22-.55.33-.19.12-.34.27-.52.4,0,0-.01.01-.02.02-.13.14-.28.28-.41.43-.19.22-.34.46-.46.71-.11.23-.2.46-.24.71-.02.13-.05.25-.09.38-.02.06-.02.12-.04.19-.02.1-.05.19-.05.29,0,.02,0,.05-.01.07-.02.04-.02.08-.02.12,0,.03,0,.06-.01.09-.01.03-.02.07-.01.1,0,.1-.04.2-.03.3-.04.07-.02.14-.03.21,0,.03,0,.05,0,.08-.03.07-.02.15-.03.22,0,.03,0,.05,0,.08-.03.06-.02.12-.02.19,0,.07.01.14,0,.21-.02.07-.02.13-.02.2,0,.1,0,.21,0,.31,0,.03,0,.06-.01.09-.02.04-.02.08-.02.12,0,.49,0,.98,0,1.47,0,.03,0,.06,0,.09.05.12.01.24.02.35,0,.03-.03.04-.07.05Z"/>
      <path class="cls-2" d="M91.77,60.08c-.27.02-.54.03-.82.05-.14,0-.28.02-.42.02-.05,0-.06-.01-.07-.05,0-.04,0-.07,0-.11,0-1.57,0-3.14,0-4.71,0-.38-.07-.76-.22-1.13-.28-.69-.78-1.27-1.5-1.76-.27-.18-.56-.34-.88-.48-.21-.09-.42-.19-.63-.29-.02,0-.04-.02-.06-.03-.02,0-.02-.02-.01-.04.01-.02.03-.04.05-.06.67-.82,1.43-1.59,2.29-2.3.11-.09.21-.18.33-.26.03,0,.05,0,.05-.03,0,0,0,0,0,0,.02,0,.03,0,.03-.02,0,0,0,0,0,0,.03,0,.05,0,.07,0,.07-.03.13-.07.2-.1.21-.1.42-.21.63-.31.11-.06.22-.12.34-.17.33-.15.66-.3,1-.44.3-.12.6-.24.9-.36.18-.07.36-.13.55-.19.33-.11.66-.22,1-.32.13-.04.25-.07.38-.1.17-.04.34-.05.52-.05.13,0,.26,0,.39.02.26.04.49.11.7.22.21.1.37.23.52.38.2.21.29.45.33.7.01.07.01.14,0,.2-.02.07-.02.15-.02.22,0,.04,0,.08,0,.12-.02.06-.02.12-.02.18,0,.05,0,.11,0,.15-.02.06-.02.12-.02.19,0,.05.01.11,0,.15-.03.09-.02.18-.03.26,0,.03,0,.06,0,.09-.03.05-.02.11-.02.16,0,.06,0,.11,0,.17-.02.06-.02.12-.02.18,0,.05,0,.11,0,.15-.02.06-.02.12-.02.19,0,.05,0,.1,0,.14-.03.07-.02.14-.02.21,0,.04,0,.08,0,.12-.03.07-.02.15-.02.22,0,.04,0,.08,0,.12-.02.06-.02.12-.02.18,0,.06.01.11,0,.17-.03.08-.02.17-.02.25,0,.03,0,.07,0,.1-.02.05-.02.1-.02.15,0,.05.01.11,0,.16-.04.1-.02.2-.03.3,0,.03,0,.05,0,.08-.03.06-.02.12-.02.18,0,.05,0,.11,0,.15-.02.07-.02.13-.02.2,0,.04,0,.09,0,.13-.03.07-.02.14-.02.21,0,.04,0,.08,0,.12-.03.08-.02.15-.02.23,0,.03,0,.07,0,.1-.03.08-.02.16-.03.24,0,.04,0,.08,0,.11-.02.05-.02.09-.02.14,0,.06.01.11,0,.17-.03.1-.02.19-.03.29,0,.03,0,.06,0,.09-.03.05-.02.11-.02.16,0,.06,0,.11,0,.17-.02.06-.02.12-.02.19,0,.04.01.09,0,.13-.03.09-.02.18-.03.26,0,.03,0,.06,0,.09-.02.05-.02.09-.02.14,0,.12-.02.24-.06.36-.08.25-.19.49-.33.72-.1.17-.21.34-.35.49-.2.24-.43.47-.7.68-.06.04-.12.08-.16.13-.02.02-.04.04-.07.05-.08.03-.14.09-.2.13-.1.06-.19.13-.3.19-.23.13-.46.25-.71.36-.12.05-.23.11-.35.15-.31.12-.62.24-.95.32-.25.07-.49.14-.75.18,0,0-.02,0-.02.01Z"/>
      <path class="cls-2" d="M110.76,60.72c.31,0,.62,0,.92.02.03,0,.05,0,.08,0,.39.01.79.02,1.18.03.28,0,.56.02.83.03.21,0,.42.01.64.02.27.02.55.02.82.03.23,0,.46.02.7.03.17,0,.34.02.51.02.36.02.73.03,1.09.05.32.02.63.04.95.06.14,0,.27.02.41.02.44.03.89.06,1.33.09.26.02.52.03.79.05.34.03.67.05,1.01.08.23.02.45.03.68.05.3.03.59.05.89.08.2.02.39.03.59.05.35.03.7.07,1.05.1.32.03.63.06.95.1.3.03.6.07.9.1.1.01.21.03.31.04,0,.01.01.02.02.03.24.51.45,1.03.61,1.56.07.23.13.46.17.69.02.12.03.24.04.36.01.08.01.17,0,.25,0,.04,0,.07,0,.11-.44.19-.89.2-1.35.04-.13-.04-.25-.1-.38-.14-.21-.08-.42-.17-.65-.24-.39-.12-.8-.19-1.22-.21-.62-.03-1.22.05-1.78.24-.58.2-1.04.51-1.38.91-.07.09-.15.18-.23.26-.15,0-.29-.02-.44-.03-.19-.01-.38-.02-.57-.03-.28-.02-.55-.04-.83-.04-.03,0-.05,0-.08,0-.21-.01-.42-.03-.63-.04-.26-.01-.51-.02-.77-.03-.02,0-.03,0-.05,0-.24-.01-.47-.03-.71-.04-.3-.01-.61-.02-.91-.03-.01,0-.02,0-.03,0-.28-.03-.55-.01-.83-.03-.22-.02-.44,0-.67-.02-.27-.01-.53-.01-.8-.02-.27-.01-.55,0-.82-.02-.34-.02-.69,0-1.03-.02-.41-.02-.82-.01-1.23-.02-.82-.02-1.65,0-2.47-.02-.41,0-.83,0-1.24,0-.29.01-.59,0-.88,0-.03,0-.05,0-.08,0-.02,0-.03-.02-.02-.03.02-.02.04-.04.05-.05.39-.39.78-.77,1.18-1.16.49-.48.98-.96,1.47-1.44.47-.46.94-.93,1.42-1.39.17-.16.33-.33.5-.49Z"/>
      <path class="cls-5" d="M110.76,60.72c-.17.16-.34.32-.5.49-.47.46-.94.93-1.42,1.39-.49.48-.98.96-1.47,1.44-.39.39-.79.77-1.18,1.16-.02.02-.04.04-.05.05-.01.01,0,.03.02.03.03,0,.05,0,.08,0,.29,0,.59,0,.88,0,.41-.02.83-.01,1.24,0,.82.01,1.65,0,2.47.02.41,0,.82,0,1.23.02.34.01.69,0,1.03.02.27.01.55,0,.82.02.27.01.54,0,.8.02.22.01.45,0,.67.02.28.02.56,0,.83.03,0,0,.02,0,.03,0,.3,0,.61.02.91.03.24,0,.47.02.71.04.02,0,.03,0,.05,0,.26,0,.51.02.77.03.21,0,.42.02.63.04.03,0,.05,0,.08,0,.28,0,.55.02.83.04.19.01.38.02.57.03.15,0,.29.02.44.03-.2.3-.5.53-.91.67-.07.02-.14.04-.22.03-.16,0-.32,0-.49,0-.18,0-.36-.02-.54-.03-.35-.02-.7-.04-1.04-.06-.34-.02-.68-.04-1.01-.06-.17,0-.34-.02-.51-.03-.4-.02-.8-.03-1.2-.05-.43-.02-.86-.04-1.29-.06-.21,0-.42-.02-.64-.02-.36-.01-.72-.02-1.08-.03-.71-.02-1.42-.04-2.14-.06-.31,0-.62-.01-.93-.01-.49,0-.97-.01-1.46-.02-1.06-.02-2.11-.02-3.17-.02-.76,0-1.52,0-2.28.01-.87,0-1.75.02-2.62.04-.58.01-1.16.03-1.74.04-.46.01-.93.03-1.39.04-.58.02-1.15.04-1.73.07-.48.02-.97.04-1.45.07-.18,0-.36.02-.54.02.02-.02.06-.03.09-.03.37-.07.74-.12,1.11-.17.33-.05.65-.09.98-.13.14-.01.23-.05.31-.13.36-.36.73-.72,1.09-1.08.56-.55,1.11-1.09,1.67-1.64.46-.45.92-.9,1.38-1.35.34-.34.68-.67,1.02-1.01.16,0,.31,0,.47-.01.77-.02,1.53-.02,2.3-.03.88-.01,1.76,0,2.63,0,.29,0,.58,0,.86,0,.02,0,.05,0,.07,0-.04.04-.08.08-.12.13-.6.59-1.2,1.18-1.81,1.77-.91.9-1.83,1.79-2.74,2.69-.03.03-.07.07-.1.1-.01.01,0,.03.02.03.02,0,.03,0,.05,0,.12,0,.24-.01.36-.02.36-.01.73-.02,1.09-.03.26,0,.18.02.34-.13.5-.48.99-.97,1.48-1.45.56-.55,1.11-1.09,1.67-1.64.31-.31.63-.62.94-.93.17-.17.33-.33.5-.5.02,0,.04-.01.06-.01.37,0,.73.01,1.1.02.32,0,.64.01.96.02.03,0,.07,0,.1.01Z"/>
      <path class="cls-2" d="M100.5,60.69c-.34.34-.68.67-1.02,1.01-.46.45-.92.9-1.38,1.35-.56.55-1.11,1.09-1.67,1.64-.37.36-.73.72-1.09,1.08-.08.08-.17.12-.31.13-.33.03-.66.08-.98.13-.37.05-.74.11-1.11.17-.03,0-.07,0-.09.03-.02,0-.04,0-.06,0-.31.02-.63.03-.94.05-.01,0-.03,0-.05,0-.08,0-.17,0-.25,0-.03,0-.06,0-.08.02-.05,0-.1,0-.15,0-.13.01-.23-.04-.33-.09-.08-.05-.15-.1-.23-.14-.21-.12-.39-.27-.55-.42-.09-.09-.15-.18-.22-.28-.12-.17-.19-.36-.2-.55,0-.01,0-.03,0-.04-.03-.06-.02-.12-.02-.19,0-.15,0-.3,0-.46,0-.03,0-.06,0-.09.03-.07.03-.14.02-.21,0-.12.05-.23.03-.34.04-.06.03-.13.03-.2,0-.02,0-.04.01-.05.02-.09.03-.17.05-.26.01-.08.02-.16.04-.24.01-.08.04-.15.05-.23.03-.12.05-.24.07-.36.02-.1.06-.19.08-.29.04-.19.09-.38.14-.57.02-.06.05-.12.04-.18.04,0,.09-.02.13-.02.3-.02.6-.03.91-.05.32-.02.63-.04.95-.06.18-.01.36-.02.54-.03.24-.01.48-.03.73-.04.18,0,.35-.02.53-.02.26-.01.51-.02.77-.03.44-.02.89-.04,1.33-.06.22,0,.44-.01.67-.02.35-.01.7-.02,1.04-.03.7-.02,1.4-.04,2.1-.05.15,0,.3-.02.45,0Z"/>
      <path class="cls-12" d="M91.77,60.08s.02-.01.02-.01c.26-.04.5-.11.75-.18.33-.09.64-.21.95-.32.12-.05.24-.1.35-.15.25-.11.48-.23.71-.36.1-.06.2-.12.3-.19.07-.04.12-.1.2-.13.03-.01.06-.03.07-.05.04-.05.1-.09.16-.13.28-.2.5-.43.7-.68.13-.16.24-.32.35-.49.14-.23.25-.47.33-.72.04-.12.07-.24.06-.36,0-.05,0-.1.02-.14.01-.03,0-.06,0-.09,0-.09,0-.18.03-.26.02-.04,0-.09,0-.13,0-.06,0-.12.02-.19.02-.05,0-.11,0-.17,0-.06,0-.11.02-.16.01-.03,0-.06,0-.09,0-.1,0-.19.03-.29.02-.05,0-.11,0-.17,0-.05,0-.1.02-.14.01-.03,0-.07,0-.11,0-.08,0-.16.03-.24.01-.03,0-.07,0-.1,0-.08,0-.15.02-.23.02-.04,0-.08,0-.12,0-.07,0-.14.02-.21.02-.04,0-.09,0-.13,0-.07,0-.13.02-.2.02-.05,0-.1,0-.15,0-.06,0-.12.02-.18.01-.02,0-.05,0-.08,0-.1,0-.2.03-.3.02-.05,0-.1,0-.16,0-.05,0-.1.02-.15.01-.03,0-.07,0-.1,0-.08,0-.17.02-.25.02-.05,0-.11,0-.17,0-.06,0-.12.02-.18.02-.04,0-.08,0-.12,0-.07,0-.15.02-.22.02-.04,0-.08,0-.12,0-.07,0-.14.02-.21.02-.05,0-.1,0-.14,0-.06,0-.12.02-.19.02-.05,0-.1,0-.15,0-.06,0-.12.02-.18.02-.05,0-.11,0-.17,0-.06,0-.11.02-.16.01-.03,0-.06,0-.09,0-.09,0-.18.03-.26.02-.05,0-.1,0-.15,0-.06,0-.12.02-.19.02-.05,0-.1,0-.15,0-.06,0-.12.02-.18.02-.04,0-.08,0-.12,0-.07,0-.15.02-.22.02-.06.02-.13,0-.2-.04-.25-.13-.49-.33-.7-.14-.15-.31-.28-.52-.38-.21-.11-.45-.18-.7-.22-.13-.02-.26-.01-.39-.02-.18,0-.35.01-.52.05-.13.03-.26.06-.38.1-.34.1-.67.2-1,.32-.18.06-.37.12-.55.19-.3.12-.61.24-.9.36-.34.14-.67.29-1,.44-.12.05-.23.11-.34.17-.21.1-.42.2-.63.31-.07.03-.13.07-.2.1-.02.01-.05.01-.07,0,.01-.02.02-.03.04-.05.37-.29.75-.58,1.15-.85.23-.16.47-.32.71-.47.45-.29.93-.56,1.41-.82.79-.42,1.61-.8,2.47-1.13.94-.37,1.92-.68,2.93-.93.04,0,.08-.02.11-.03.06-.01.08,0,.07.04-.04.16-.05.32-.06.49-.02.24-.04.48-.06.72-.02.23-.04.47-.06.7-.02.24-.04.49-.06.73-.02.23-.04.47-.06.7-.03.28-.05.56-.08.84-.01.12-.01.24-.03.37-.02.18-.03.35-.04.53-.01.17-.03.33-.05.5-.01.13-.02.25-.03.38-.02.18-.03.36-.04.54-.01.17-.03.33-.05.5,0,.01,0,.02,0,.03-.01.18-.03.37-.04.55-.02.25-.04.5-.06.75-.02.23-.04.45-.06.68-.03.28-.05.56-.08.84-.01.12-.01.24-.03.37-.02.18-.03.35-.04.53-.01.18-.03.35-.05.53,0,.01,0,.02,0,.03-.01.18-.03.37-.04.55-.02.25-.04.5-.06.75-.02.22-.04.44-.06.66-.03.32-.06.64-.09.95-.01.11-.05.21-.09.32-.07.19-.16.38-.28.56-.03.05-.08.08-.16.08-.04,0-.09,0-.14,0-.32.01-.65.02-.97.03-.26,0-.52.02-.79.04-.04,0-.07,0-.11,0-.42.02-.85.03-1.27.05-.28.01-.56.03-.85.04-.33.02-.66.04-1,.06-.05,0-.1,0-.15,0Z"/>
      <path class="cls-12" d="M90.34,61.1c.01.06-.02.12-.04.18-.05.19-.11.38-.14.57-.02.1-.05.19-.08.29-.03.12-.05.24-.07.36-.02.08-.04.15-.05.23-.02.08-.03.16-.04.24-.02.09-.03.17-.05.26,0,.02-.01.04-.01.05,0,.07,0,.13-.03.2.01.12-.04.23-.03.34,0,.07,0,.14-.02.21-.01.03,0,.06,0,.09,0,.15,0,.3,0,.46,0,.06,0,.13.02.19,0,.01,0,.03,0,.04.01.19.08.38.2.55.06.1.13.19.22.28.16.16.34.3.55.42.08.04.15.1.23.14.1.06.2.11.33.09-.03.02-.07.02-.1.02-.12,0-.24.01-.36.02-.28.02-.55.04-.83.03-.06,0-.12,0-.18,0-.11,0-.21-.01-.3-.05-.3-.11-.55-.28-.73-.49-.12-.14-.23-.29-.35-.43-.27-.32-.62-.59-1.07-.79-.39-.17-.81-.29-1.26-.34-.18-.02-.37-.04-.56-.04-.53,0-1.03.08-1.52.23-.26.08-.5.18-.74.28-.13.05-.26.1-.39.14-.22.06-.45.07-.69.05-.03,0-.06-.01-.09-.02,0,0-.02-.02-.03-.02h0s0-.07,0-.1c-.04-.08-.02-.16-.03-.24,0-.09,0-.17,0-.26,0-.09.02-.18.04-.26.08-.22.16-.45.25-.67.11-.28.23-.55.35-.82.1-.23.2-.46.31-.7,0-.02.02-.04.03-.06,0-.02,0-.04-.03-.05.08-.03.18-.03.27-.04.48-.06.97-.11,1.45-.16.34-.04.69-.06,1.04-.1.37-.03.74-.07,1.11-.1.22-.02.44-.03.66-.05.23-.02.46-.04.69-.06.12,0,.24-.02.36-.03.36-.02.71-.05,1.07-.07.2-.01.39-.03.59-.04.02,0,.05,0,.08,0Z"/>
      <path class="cls-2" d="M88.18,60.31c-.22.02-.43.04-.65.05-.23.02-.46.04-.69.06-.21.02-.41.03-.62.05-.29.03-.58.05-.87.08-.25.02-.5.05-.75.07-.34.03-.67.07-1.01.1-.06,0-.12.01-.18.02-.04,0-.06,0-.05-.04,0-.11.02-.22.03-.33.01-.11.03-.23.05-.34.04-.31.09-.61.15-.91.08-.4.17-.8.28-1.19.14-.51.3-1.01.49-1.51.31-.82.68-1.62,1.13-2.4.14-.25.29-.5.45-.74.01-.02.03-.03.04-.05.32.18.61.38.89.6.26.2.5.42.71.65.22.24.38.51.46.79.06.22.09.45.12.67.03.26.05.52.06.79.02.4,0,.81.03,1.21,0,.19,0,.38-.01.58-.01.52,0,1.04-.04,1.57,0,.07,0,.15,0,.22h0Z"/>
      <path class="cls-2" d="M125.25,60.62c-.26-.02-.51-.05-.77-.07-.28-.03-.56-.05-.84-.07-.31-.03-.61-.06-.92-.08-.23-.02-.45-.03-.68-.05-.24-.02-.48-.04-.72-.06-.15-.01-.29-.02-.44-.03-.05,0-.06-.01-.06-.05,0-.03,0-.07,0-.1,0-1.42,0-2.84,0-4.26,0-.15,0-.3,0-.44,0-.23.02-.46.05-.69.05-.31.13-.61.25-.9.19-.46.46-.9.82-1.31.03-.04.06-.08.11-.11.01.02.03.03.04.05.28.37.54.75.78,1.14.41.65.76,1.31,1.07,1.99.26.58.49,1.17.68,1.76.11.34.2.67.28,1.01.08.32.14.65.2.98.04.25.07.51.11.76.02.18.03.35.04.53Z"/>
      <path class="cls-5" d="M109.79,59.76c-.07-.15-.11-.3-.15-.45-.07-.3-.09-.6-.09-.9,0-.33-.01-.65-.04-.98-.02-.24,0-.47-.03-.71-.02-.28-.01-.56-.03-.84-.02-.23,0-.46-.03-.69-.02-.24-.01-.49-.03-.73-.02-.23,0-.45-.03-.68-.02-.22,0-.44-.03-.67-.02-.21,0-.43-.03-.64-.02-.21-.01-.43-.03-.64-.02-.2-.01-.41-.03-.61-.02-.21-.01-.41-.03-.62-.02-.18-.01-.36-.03-.54-.02-.2-.01-.4-.03-.6-.02-.16-.01-.32-.03-.48-.02-.2-.02-.39-.03-.59-.01-.14,0-.28-.03-.42-.03-.2,0-.41-.05-.61,0,0,0-.01,0-.02-.01-.21-.02-.43-.04-.64-.01-.17-.03-.34-.05-.51,0-.03,0-.07,0-.1-.02-.24-.04-.49-.1-.73-.07-.31-.23-.6-.46-.86-.27-.31-.62-.57-1.02-.79-.15-.08-.31-.16-.47-.22-.03-.01-.05-.03-.07-.04.02,0,.05,0,.07,0,.29,0,.58,0,.86,0,.95.02,1.84.52,2.08,1.26.04.11.06.22.06.33.02.29.05.58.08.88.01.13.02.26.03.39.02.3.05.61.07.91.03.37.06.73.09,1.1.03.34.06.69.09,1.03.03.37.06.74.09,1.11.02.23.04.45.06.68.04.4.07.81.11,1.21.02.17.03.35.04.52.03.3.05.59.08.89.01.13.02.27.03.4.02.3.05.61.07.91.02.28.05.57.08.85.01.17.03.34.04.51.03.3.05.6.08.9.01.13.02.25.03.38.02.3.04.61.07.91.02.2.03.4.08.6.05.18.12.35.19.53.01.02.03.05.02.07-.02.01-.05,0-.07,0-.48,0-.96-.02-1.44-.03,0,0-.02,0-.03,0Z"/>
      <path class="cls-12" d="M103.08,43.44c-.06.03-.13.07-.19.1-.13.06-.26.13-.38.22-.07.05-.16.09-.22.15-.09.07-.18.15-.27.22,0,0-.02.02-.02.03-.02.02,0,.03.04.04,0,0,.02,0,.03,0-.02,0-.05.01-.07.02-.52.05-.85.27-1.02.63-.05.1-.06.2-.06.31-.01.22-.03.44-.04.65-.02.28-.04.55-.06.83-.02.28-.04.57-.06.85-.02.28-.04.56-.06.84-.02.28-.04.56-.06.84-.02.28-.04.55-.06.83-.02.28-.04.56-.06.84-.02.27-.04.54-.06.81-.02.29-.04.58-.06.87-.02.27-.04.53-.06.8-.01.18-.03.36-.05.54,0,.01,0,.02,0,.03-.01.23-.03.45-.04.68-.02.3-.04.6-.06.9-.02.27-.04.53-.06.8-.02.29-.04.58-.07.88-.01.13-.02.25-.03.38-.02.29-.04.58-.06.87-.02.27-.04.53-.06.8-.01.16-.02.31-.03.47,0,.01,0,.02,0,.03-.01.06-.02.07-.12.07-.38.02-.76.01-1.14.03-.05,0-.07,0-.05-.04.06-.14.12-.28.16-.42.06-.17.09-.34.11-.52.02-.17.03-.35.04-.52.02-.18.03-.35.05-.53.01-.13.02-.25.03-.38.02-.18.03-.36.04-.54.01-.17.03-.33.05-.5,0-.01,0-.03,0-.04.01-.19.03-.38.04-.58.02-.24.04-.48.06-.72.02-.24.04-.47.06-.71.02-.24.04-.47.06-.71.02-.24.04-.48.06-.72.02-.23.04-.46.06-.69.02-.24.04-.48.06-.72.02-.23.04-.47.06-.7.02-.24.04-.49.06-.73.02-.24.04-.48.06-.72.02-.23.04-.47.06-.7.02-.24.04-.48.06-.72.02-.24.04-.47.06-.71.02-.24.04-.47.06-.71.02-.24.04-.48.06-.72.02-.23.04-.47.06-.7.03-.33.15-.64.42-.91.35-.36.83-.59,1.43-.67.1-.01.21-.02.32-.02.29,0,.58,0,.86,0,.02,0,.04,0,.06,0Z"/>
      <path class="cls-5" d="M125.25,60.62c-.01-.18-.02-.36-.04-.53-.03-.25-.06-.51-.11-.76-.05-.33-.12-.65-.2-.98-.08-.34-.18-.67-.28-1.01-.19-.59-.41-1.18-.68-1.76-.31-.68-.66-1.34-1.07-1.99-.24-.39-.5-.77-.78-1.14-.01-.02-.03-.03-.04-.05,0-.01,0-.02.02-.03.22-.23.47-.44.75-.62.02-.01.04-.02.06-.03.04,0,.05.02.06.04.56.82,1.14,1.63,1.6,2.48.55,1.01.99,2.05,1.32,3.11.15.48.28.96.38,1.45.06.3.12.6.16.9.04.27.07.53.11.8.01.08.01.16.02.23-.01.01-.01.02-.02.02,0,0,0,0-.01,0-.42-.04-.83-.09-1.25-.13Z"/>
      <path class="cls-12" d="M117.86,60.06s.07-.02.07-.05c0-.12.02-.24-.02-.35-.01-.03,0-.06,0-.09,0-.49,0-.98,0-1.47,0-.04,0-.08.02-.12.01-.03.01-.06.01-.09,0-.1,0-.21,0-.31,0-.07,0-.13.02-.2.02-.07,0-.14,0-.21,0-.06,0-.13.02-.19.01-.02,0-.05,0-.08,0-.07,0-.15.03-.22.01-.02,0-.05,0-.08,0-.07-.01-.14.03-.21-.01-.1.04-.2.03-.3,0-.03,0-.07.01-.1.01-.03.01-.06.01-.09,0-.04,0-.08.02-.12.01-.02.01-.04.01-.07,0-.1.03-.2.05-.29.01-.06.02-.12.04-.19.03-.13.06-.25.09-.38.04-.24.13-.48.24-.71.12-.25.27-.48.46-.71.12-.15.27-.28.41-.43,0,0,.01-.01.02-.02.18-.13.33-.28.52-.4.18-.11.36-.22.55-.33.26-.14.54-.26.81-.38.29-.12.59-.22.9-.31.04-.01.08-.03.13-.03.06.04.09.09.13.13-.1.07-.23.11-.34.16-.22.1-.44.2-.64.31-.52.29-.96.65-1.3,1.06-.34.41-.57.86-.69,1.33-.05.21-.08.43-.08.65,0,1.57,0,3.15,0,4.72,0,.03,0,.05,0,.08,0,.04.03.1-.02.13-.04.03-.12,0-.17,0-.21-.01-.42-.03-.63-.04-.2-.01-.39-.02-.59-.03-.05,0-.11,0-.16-.02Z"/>
      <path class="cls-5" d="M88.18,60.3c0-.07,0-.15,0-.22.03-.52.02-1.04.04-1.57,0-.19.02-.39.01-.58-.02-.4,0-.81-.03-1.21-.01-.26-.03-.53-.06-.79-.02-.22-.05-.45-.12-.67-.08-.29-.25-.55-.46-.79-.21-.23-.44-.45-.71-.65-.28-.21-.57-.42-.89-.6,0-.03.03-.06.05-.09.1-.16.21-.31.31-.47.18-.27.36-.54.55-.8.03-.05.06-.1.11-.15.06.02.1.06.15.09.4.27.72.58.99.92.41.51.67,1.06.82,1.64.09.35.13.7.13,1.06,0,1.56,0,3.12,0,4.68,0,.03,0,.07,0,.1,0,.04-.01.05-.07.05-.24.02-.47.03-.71.05-.03,0-.07,0-.1,0Z"/>
      <path class="cls-5" d="M122.49,51.69s-.07-.1-.13-.13c-.07-.1-.16-.19-.25-.28-.35-.36-.73-.71-1.14-1.04-.38-.31-.77-.61-1.18-.89-.56-.38-1.14-.75-1.74-1.09-.56-.32-1.14-.62-1.74-.91-.6-.29-1.22-.57-1.85-.82-.58-.24-1.16-.46-1.76-.67-.48-.17-.96-.33-1.45-.48-.02,0-.05-.01-.07-.02,0-.03-.02-.05-.02-.08-.01-.13-.02-.26-.03-.39,0-.08-.02-.15-.04-.23,0-.02-.02-.04,0-.05.04-.01.08,0,.12.01.74.18,1.47.4,2.18.64,1.49.52,2.87,1.16,4.15,1.92.67.4,1.31.82,1.91,1.27,1.24.93,2.32,1.94,3.23,3.05.08.1.09.08-.05.15-.04.02-.09.04-.13.05Z"/>
      <path class="cls-2" d="M108.53,60.68c-.17.17-.33.34-.5.5-.31.31-.63.62-.94.93-.56.55-1.11,1.09-1.67,1.64-.49.48-.98.97-1.48,1.45-.16.15-.08.13-.34.13-.36,0-.73.02-1.09.03-.12,0-.24.02-.36.02-.02,0-.03,0-.05,0-.02,0-.04-.02-.02-.03.03-.03.06-.07.1-.1.91-.9,1.83-1.79,2.74-2.69.6-.59,1.2-1.18,1.81-1.77.04-.04.08-.08.12-.13.3,0,.6,0,.89,0,.19,0,.38,0,.58,0,.08,0,.15,0,.23.02Z"/>
      <path class="cls-2" d="M83.02,61.74s.04.03.03.05c0,.02-.02.04-.03.06-.1.23-.21.46-.31.7-.12.27-.24.55-.35.82-.09.22-.17.45-.25.67-.03.09-.05.17-.04.26,0,.08,0,.17,0,.26,0,.08,0,.16.03.24.01.03,0,.07,0,.1-.04,0-.08,0-.12,0-.32-.06-.57-.2-.78-.39-.36-.32-.48-.69-.38-1.1,0-.04.02-.07.04-.11.16-.34.32-.69.48-1.03.11-.24.34-.38.68-.42.28-.03.57-.07.85-.1.04,0,.09,0,.14,0Z"/>
      <path class="cls-5" d="M128.19,64.81s0-.07,0-.11c.02-.08.02-.17,0-.25-.02-.12-.02-.24-.04-.36-.04-.23-.1-.46-.17-.69-.16-.53-.37-1.05-.61-1.56,0-.01-.01-.02-.02-.03.2.01.39.03.58.07.28.05.47.18.57.38.06.11.11.23.16.35.1.22.21.45.31.67.18.39.11.77-.19,1.12-.15.18-.35.32-.61.42Z"/>
      <path class="cls-12" d="M112.22,57.45s.05.04.06.06c.06.08.11.16.16.24.12.17.25.33.38.49.1.12.2.23.31.34.11.11.22.21.33.31.11.11.27.19.37.31,0,0,.02.02.03.02.07.03.12.07.17.11.15.11.32.21.49.3.15.08.31.15.47.22.05.02.09.05.14.07-.17,0-.33,0-.5-.01-.03,0-.05,0-.08,0-.3,0-.61-.02-.91-.03-.25-.01-.49-.02-.74-.02-.02,0-.04,0-.06,0-.07,0-.12-.03-.15-.08-.2-.3-.33-.6-.38-.93-.02-.11-.02-.23-.03-.34-.02-.17-.03-.34-.04-.51-.01-.15-.02-.3-.04-.45,0-.03,0-.05,0-.08Z"/>
      <path class="cls-12" d="M91.46,66.3s.05-.02.08-.02c.08,0,.17,0,.25,0-.11.02-.22.02-.33.02Z"/>
      <path class="cls-12" d="M88.18,60.3s.07,0,.1,0c-.03.02-.07.01-.1,0,0,0,0-.01,0-.01Z"/>
      <path class="cls-12" d="M82,64.9s.08,0,.12,0c0,0,0,0,0,0,0,0,0,.01,0,.02-.04,0-.08,0-.12-.02Z"/>
      <path class="cls-12" d="M89.87,48.91s-.02.03-.05.03c0-.02.02-.03.05-.03Z"/>
      <path class="cls-12" d="M89.9,48.89s0,.02-.03.02c0-.01.01-.02.03-.02Z"/>
      <path class="cls-2" d="M82.11,64.92s0-.01,0-.02c0,0,.02.02.03.02,0,0-.01,0-.01,0h-.01Z"/>
    </g>
  </g>
</svg>