<?xml version="1.0" encoding="UTF-8"?>
<svg id="Layer_1" data-name="Layer 1" xmlns="http://www.w3.org/2000/svg" xmlns:xlink="http://www.w3.org/1999/xlink" viewBox="0 0 393.6 150">
  <defs>
    <style>
      .cls-1, .cls-2, .cls-3, .cls-4 {
        fill-rule: evenodd;
      }

      .cls-1, .cls-5, .cls-6 {
        fill: #fff;
      }

      .cls-7, .cls-3 {
        fill: #1d78a1;
      }

      .cls-8 {
        fill: #fdd02c;
      }

      .cls-2 {
        fill: #e8e3e3;
      }

      .cls-9 {
        fill: #f7be59;
      }

      .cls-6 {
        filter: url(#drop-shadow-1);
      }

      .cls-4, .cls-10 {
        fill: #115071;
      }

      .cls-11 {
        fill: #f29b00;
      }

      .cls-10 {
        font-family: Assistant-Regular, Assistant;
        font-size: 30.23px;
      }

      .cls-12 {
        fill: #4d9ed5;
      }
    </style>
    <filter id="drop-shadow-1" x="0" y="0" width="393.6" height="150" filterUnits="userSpaceOnUse">
      <feOffset dx="0" dy="0"/>
      <feGaussianBlur result="blur" stdDeviation="4.93"/>
      <feFlood flood-color="#000" flood-opacity=".4"/>
      <feComposite in2="blur" operator="in"/>
      <feComposite in="SourceGraphic"/>
    </filter>
  </defs>
  <rect class="cls-6" x="15.04" y="14.95" width="363.53" height="119.93" rx="15.4" ry="15.4"/>
  <text class="cls-10" transform="translate(230.69 82.26)"><tspan x="0" y="0">לומדות</tspan></text>
  <g>
    <g>
      <polygon class="cls-3" points="96 92.11 111.91 92.11 113.21 105.32 94.7 105.32 96 92.11"/>
      <polygon class="cls-4" points="103.95 92.11 111.91 92.11 113.21 105.32 103.95 105.32 103.95 92.11"/>
      <path class="cls-5" d="M93.49,103.33h20.93c.48,0,.86.39.86.86v.62c0,.48-.39.86-.86.86h-20.93c-.48,0-.86-.39-.86-.86v-.62c0-.48.39-.86.86-.86Z"/>
      <path class="cls-2" d="M103.95,103.33h10.46c.47,0,.86.39.86.86v.62c0,.47-.39.86-.86.86h-10.46v-2.34Z"/>
      <path class="cls-4" d="M70.44,44.15h67.04c.77,0,1.47.28,2.02.75.67.57,1.09,1.42,1.09,2.36v45.28c0,1.71-1.4,3.11-3.11,3.11h-67.04c-1.71,0-3.11-1.4-3.11-3.11v-45.28c0-1.71,1.4-3.11,3.11-3.11Z"/>
      <path class="cls-1" d="M140.58,88.66v3.88c0,1.71-1.4,3.11-3.11,3.11h-67.04c-1.71,0-3.11-1.4-3.11-3.11v-3.88h73.25Z"/>
      <path class="cls-2" d="M140.58,88.66v3.88c0,1.71-1.4,3.11-3.11,3.11h-33.52v-6.99h36.63Z"/>
      <rect class="cls-5" x="69.81" y="46.91" width="68.3" height="39.52"/>
      <rect class="cls-5" x="103.95" y="46.91" width="34.15" height="39.52"/>
      <rect class="cls-7" x="99.46" y="90.63" width="8.99" height="2.44" rx="1.22" ry="1.22"/>
      <path class="cls-4" d="M103.95,90.63h3.27c.67,0,1.22.55,1.22,1.22h0c0,.67-.55,1.22-1.22,1.22h-3.27v-2.44Z"/>
    </g>
    <g>
      <rect class="cls-11" x="84.48" y="53.71" width="38.95" height="4.44"/>
      <rect class="cls-12" x="76.07" y="59.89" width="55.76" height="2.22"/>
      <rect class="cls-12" x="76.07" y="63.66" width="55.76" height="2.22"/>
      <rect class="cls-12" x="76.07" y="67.42" width="55.76" height="2.22"/>
      <rect class="cls-9" x="76.07" y="71.71" width="25.64" height="5.81"/>
      <rect class="cls-9" x="106.2" y="71.71" width="25.64" height="5.81"/>
      <rect class="cls-8" x="76.07" y="79" width="25.64" height="2.22"/>
      <rect class="cls-8" x="106.2" y="79" width="25.64" height="2.22"/>
    </g>
  </g>
</svg>