<?xml version="1.0" encoding="utf-8"?>
<!-- Generator: Adobe Illustrator 28.3.0, SVG Export Plug-In . SVG Version: 6.00 Build 0)  -->
<svg version="1.1" id="Layer_1" xmlns="http://www.w3.org/2000/svg" xmlns:xlink="http://www.w3.org/1999/xlink" x="0px" y="0px"
	 viewBox="0 0 37 40" style="enable-background:new 0 0 37 40;" xml:space="preserve">
<style type="text/css">
	.st0{fill:#E89024;}
	.st1{fill:#176699;}
	.st2{fill:#E8E8E8;}
	.st3{fill:#D49445;}
	.st4{fill:#145C8A;}
	.st5{fill:#D1D1D1;}
	.st6{fill:#26ABFF;}
	.st7{fill:#2199E5;}
	.st8{fill:#1F8ACF;}
	.st9{fill:#E5E5E5;}
	.st10{fill:#A3A3A3;}
	.st11{fill:#7D7D7D;}
	.st12{fill:#C4C4C4;}
	.st13{fill:#FFFFFF;}
	.st14{fill:#A1A1A1;}
	.st15{fill:#B5B5B5;}
	.st16{fill:#8C8C8C;}
	.st17{fill:#DBDBDB;}
	.st18{fill:#919191;}
	.st19{fill:#D4D4D4;}
	.st20{fill:#F0F0F0;}
</style>
<path class="st0" d="M34.68,21.22c0,8.84-7.16,16-16,16s-16-7.16-16-16s7.16-16,16-16S34.68,12.38,34.68,21.22z"/>
<path class="st1" d="M17.37,12.14V29.9c0,0.18-0.14,0.32-0.32,0.32H9.13c-0.18,0-0.32-0.14-0.32-0.32V12.14
	c0-0.18,0.14-0.32,0.32-0.32h7.92C17.23,11.82,17.37,11.96,17.37,12.14z"/>
<path class="st2" d="M12.7,15.25h-2.19c0,0-0.04-0.02-0.04-0.04v-1.62c0,0,0.02-0.04,0.04-0.04h2.19c0,0,0.04,0.02,0.04,0.04v1.62
	C12.74,15.21,12.72,15.25,12.7,15.25z"/>
<path class="st2" d="M15.67,15.25h-2.19c0,0-0.04-0.02-0.04-0.04v-1.62c0,0,0.02-0.04,0.04-0.04h2.19c0,0,0.04,0.02,0.04,0.04v1.62
	C15.71,15.21,15.69,15.25,15.67,15.25z"/>
<path class="st2" d="M12.7,17.66h-2.19c0,0-0.04-0.02-0.04-0.04V16c0,0,0.02-0.04,0.04-0.04h2.19c0,0,0.04,0.02,0.04,0.04v1.62
	C12.74,17.62,12.72,17.66,12.7,17.66z"/>
<path class="st2" d="M15.67,17.66h-2.19c0,0-0.04-0.02-0.04-0.04V16c0,0,0.02-0.04,0.04-0.04h2.19c0,0,0.04,0.02,0.04,0.04v1.62
	C15.71,17.62,15.69,17.66,15.67,17.66z"/>
<path class="st2" d="M12.7,20.07h-2.19c0,0-0.04-0.02-0.04-0.04v-1.62c0,0,0.02-0.04,0.04-0.04h2.19c0,0,0.04,0.02,0.04,0.04v1.62
	C12.74,20.03,12.72,20.07,12.7,20.07z"/>
<path class="st2" d="M15.67,20.07h-2.19c0,0-0.04-0.02-0.04-0.04v-1.62c0,0,0.02-0.04,0.04-0.04h2.19c0,0,0.04,0.02,0.04,0.04v1.62
	C15.71,20.03,15.69,20.07,15.67,20.07z"/>
<path class="st3" d="M8.81,29.48v0.42c0,0.07,0.02,0.13,0.06,0.18c-0.04-0.05-0.06-0.12-0.06-0.18V29.48z"/>
<path class="st4" d="M17.37,16.86l-1.66,2.44v0.73c0,0-0.02,0.04-0.04,0.04h-0.48l-6.38,9.41v0.42c0,0.07,0.02,0.13,0.06,0.18
	c0.04,0.05,0.09,0.1,0.16,0.12c0.03,0.01,0.07,0.02,0.11,0.02c0,0-0.07,0-0.11-0.02l8.34-12.31v-1.04V16.86z"/>
<path class="st5" d="M15.72,19.3l-0.53,0.78h0.48c0,0,0.04-0.02,0.04-0.04v-0.73L15.72,19.3z"/>
<path class="st6" d="M28.71,30.22H9.13c0,0-0.07,0-0.11-0.02l8.35-12.31l1.37-2.02c0.07-0.1,0.18-0.15,0.29-0.15
	c0.1,0,0.19,0.05,0.26,0.14l9.7,13.82c0.16,0.22,0,0.53-0.27,0.53"/>
<path class="st7" d="M28.71,30.22h-9.68V15.73c0.1,0,0.19,0.05,0.26,0.14l9.7,13.82c0.16,0.22,0,0.53-0.27,0.53"/>
<path class="st8" d="M20.14,19.58c0.07,0.59,0.36,2.04,1.55,2.87v3.71h-0.05l-1.22,0.79l1.54-0.02c-0.03,0.06-0.05,0.14-0.05,0.23
	v3.06h0.65v-3.06c0-0.22,0.13-0.4,0.29-0.4h2.3c0,0,0.03,0,0.05,0c0.02,0,0.05,0.01,0.07,0.03c0.05-0.12,0.1-0.25,0.15-0.38h-3.08
	v-6.17l-0.27-0.41C21.43,19.63,20.5,19.59,20.14,19.58z M25.6,24.92v1.27c0.21,0,0.52-0.04,0.83-0.08l-0.84-1.2L25.6,24.92z"/>
<path class="st3" d="M25.61,19.29v0.68c0.06,0,0.12,0,0.19,0c0.24,0.35,0.82,1.39,0.58,2.87L26.64,22v-0.06h0.01
	c-0.01-0.1-0.02-0.19-0.03-0.27c-0.02-0.11-0.05-0.24-0.1-0.4c-0.1-0.36-0.3-0.82-0.65-1.28v-0.02c-0.03-0.07-0.05-0.13-0.08-0.2
	C25.74,19.61,25.68,19.45,25.61,19.29z"/>
<path class="st9" d="M26.61,21.67c0,0.09,0.02,0.17,0.03,0.26C26.64,21.9,26.64,21.81,26.61,21.67z"/>
<path class="st10" d="M22.34,16.34v2.86c0.27,0.22,0.6,0.42,1,0.58v-2.97C23,16.61,22.66,16.46,22.34,16.34z"/>
<path class="st11" d="M24.61,17.81v2.34c0.31,0.05,0.64,0.09,1,0.11v-0.97C25.35,18.7,25.01,18.21,24.61,17.81z"/>
<path class="st12" d="M23.34,16.81v2.97c0.37,0.15,0.79,0.28,1.27,0.36V17.8C24.22,17.39,23.78,17.06,23.34,16.81z"/>
<path class="st3" d="M22.56,30.28c-0.55,0.45-1.14,0.81-1.79,1.07c0,0-0.52,0.69,0.38,1.16c0.09-0.03,0.66-0.23,1.41-0.75V30.28
	L22.56,30.28z"/>
<path class="st11" d="M25.22,26.77c-0.34,0.71-0.75,1.39-1.22,2.01v1.68c0.51-0.58,1.01-1.31,1.44-2.23v-1.07
	C25.44,26.97,25.35,26.81,25.22,26.77z"/>
<path class="st10" d="M22.34,20.2v2.54c0.28,0.2,0.61,0.36,1,0.48v-2.61c-0.33-0.17-0.67-0.3-1-0.4"/>
<path class="st11" d="M24.61,21.48v1.9c0.26,0,0.54-0.02,0.83-0.06c0.05,0.1,0.11,0.21,0.16,0.34v-0.55c0,0-0.05-0.07-0.07-0.1
	C25.36,22.4,25.02,21.89,24.61,21.48"/>
<path class="st12" d="M23.34,20.6v2.61c0.37,0.11,0.79,0.17,1.27,0.17v-1.9C24.24,21.11,23.79,20.82,23.34,20.6z"/>
<path class="st11" d="M25.61,25.9c-0.07,0.17-0.14,0.34-0.22,0.51h0.22V25.9z"/>
<path class="st13" d="M26.71,21.73l-0.09,0.28l-0.26,0.84c0.24-1.48-0.34-2.52-0.58-2.87c-0.06-0.08-0.09-0.13-0.09-0.13l0.09-0.09
	l0.08-0.08c0,0,0.04,0.05,0.05,0.07c0.77,1.01,0.79,1.97,0.79,1.97"/>
<path class="st13" d="M25.19,22.66c0,0,0.97,1.15,0.67,3l0.34-1.12c0,0-0.02-1.01-0.85-2.04l-0.17,0.17L25.19,22.66z"/>
<g>
	<path class="st13" d="M26.73,22.41c-0.79-3.37,1.82-5.58,2.7-5.89C29.64,17.57,29.8,20.68,26.73,22.41z"/>
	<path class="st13" d="M29.97,22.49c-0.46,0.8-0.74,2.11-1.47,3.01c-0.03,0.04-0.06,0.08-0.1,0.11c-0.68,0.69-1.81,0.64-2.24,0.59
		c-0.11-0.01-0.17-0.03-0.17-0.03c0-0.06-0.01-0.39,0.72-1.81c0.82-1.58,3.27-1.87,3.27-1.87"/>
	<path class="st13" d="M23.43,13.34c-3.09-0.52-3.28-3.35-3.28-3.35c3.04,0.66,3.26,2.84,3.28,3.27
		C23.43,13.31,23.43,13.34,23.43,13.34z"/>
	<path class="st2" d="M23.43,13.26v0.08c-3.09-0.52-3.28-3.35-3.28-3.35S22.99,12.45,23.43,13.26z"/>
	<path class="st14" d="M25.44,27.16V32c0,0.22-0.13,0.4-0.29,0.4h-2.3c-0.16,0-0.29-0.18-0.29-0.4v-4.84c0-0.22,0.13-0.4,0.29-0.4
		h2.3C25.31,26.76,25.44,26.94,25.44,27.16z"/>
	<path class="st13" d="M26.44,18.91c-2.35-3.43,0.29-6.29,0.29-6.29C29.18,16.48,26.44,18.91,26.44,18.91z"/>
	<path class="st15" d="M25.61,13.1v13.31h-3.26V13.1c0-3.11,1.63-4.34,1.63-4.34S25.61,9.91,25.61,13.1z"/>
	<path class="st16" d="M25.61,13.1v13.31h-1.63V8.76C23.98,8.76,25.61,9.91,25.61,13.1z"/>
	<path class="st17" d="M23.98,10.69c0,0,0.64,1.01,0.64,3.81v11.66h-1.27V14.5c0-2.73,0.64-3.81,0.64-3.81"/>
	<path class="st16" d="M25.44,27.16V32c0,0.22-0.13,0.4-0.29,0.4H24v-5.45l0.57-0.2h0.58c0,0,0.05,0,0.07,0.01
		c0.13,0.04,0.22,0.2,0.22,0.39"/>
	<path class="st18" d="M24,28.78c-0.43,0.56-0.91,1.07-1.44,1.51v1.47c0.44-0.31,0.95-0.73,1.44-1.3V28.78z"/>
	<path class="st19" d="M21.07,26.95l4.63-0.06l0.27-0.73h-3.68L21.07,26.95z"/>
	<path class="st13" d="M25.98,19.99c0,0-0.08,0-0.12,0h-0.07c-0.06,0-0.13,0-0.19-0.01c-1.54-0.09-2.57-0.5-3.26-1.03
		c-1.27-0.97-1.4-2.35-1.47-2.93c0.33,0,0.87,0.08,1.47,0.28c1.14,0.36,2.52,1.13,3.26,2.64c0.12,0.25,0.23,0.53,0.32,0.83
		c0.02,0.08,0.04,0.15,0.06,0.23"/>
	<path class="st13" d="M25.61,23.03c-0.06,0-0.11,0.01-0.16,0.02c-3.7,0.4-4.57-2.52-4.67-3.43c1.09,0.03,4.36,0.82,4.84,3.41"/>
	<path class="st13" d="M26.78,24.01c-1.35,6.27-5.21,8.04-5.6,8.2h-0.03c-0.8-0.41-0.47-1-0.39-1.12l0.02-0.02
		c1.98-0.79,3.51-2.59,4.49-4.66c0.12-0.26,0.24-0.53,0.35-0.8c0.66-1.67,0.98-3.46,0.9-5c-0.06-1.22-0.43-2.31-0.9-3.22V16.5
		c1.03,1.72,1.88,4.25,1.18,7.51"/>
	<path class="st2" d="M20.87,16.01c0.11,0.93,0.43,3.83,4.92,3.97C25.79,19.98,22.92,17.14,20.87,16.01z"/>
	<path class="st2" d="M25.44,23.05c-3.7,0.4-4.57-2.52-4.67-3.43C23.43,21.13,25.38,22.99,25.44,23.05z"/>
	<path class="st2" d="M26.61,18.73c0,0,2.58-2.26,0.13-6.11C26.74,12.62,26.45,15.82,26.61,18.73z"/>
	<path class="st2" d="M26.99,22.25c3.07-1.73,2.65-4.67,2.44-5.73C29.43,16.52,27.6,20.17,26.99,22.25z"/>
	<path class="st2" d="M29.97,22.49c-0.46,0.8-0.74,2.11-1.47,3.01c-0.03,0.04-0.06,0.08-0.1,0.11c-0.82,0.85-2.17,0.6-2.24,0.59
		c0.06-0.07,2.73-3.01,3.81-3.7"/>
	<path class="st20" d="M21.18,32.21h-0.03c-0.8-0.41-0.47-1-0.39-1.12c0.34,0.25,0.53,0.58,0.43,1.12"/>
</g>
</svg>
