<?xml version="1.0" encoding="UTF-8"?>
<svg id="Layer_1" data-name="Layer 1" xmlns="http://www.w3.org/2000/svg" xmlns:xlink="http://www.w3.org/1999/xlink" viewBox="0 0 393.6 150">
  <defs>
    <style>
      .cls-1 {
        fill: #e8e3e3;
      }

      .cls-2 {
        fill: #1d78a1;
      }

      .cls-3 {
        fill: #fdd02c;
      }

      .cls-4 {
        fill: #d78200;
      }

      .cls-5, .cls-6 {
        fill: #fff;
      }

      .cls-6 {
        filter: url(#drop-shadow-1);
      }

      .cls-7 {
        fill: #f29b00;
      }

      .cls-8 {
        fill: #fff8e9;
      }

      .cls-9 {
        font-family: Assistant-Regular, Assistant;
        font-size: 30.23px;
      }

      .cls-9, .cls-10 {
        fill: #115071;
      }

      .cls-11 {
        fill: #ffd600;
      }

      .cls-12 {
        fill: #4d9ed5;
      }
    </style>
    <filter id="drop-shadow-1" x="0" y="0" width="393.6" height="150" filterUnits="userSpaceOnUse">
      <feOffset dx="0" dy="0"/>
      <feGaussianBlur result="blur" stdDeviation="4.93"/>
      <feFlood flood-color="#000" flood-opacity=".4"/>
      <feComposite in2="blur" operator="in"/>
      <feComposite in="SourceGraphic"/>
    </filter>
  </defs>
  <rect class="cls-6" x="14.9" y="14.95" width="363.53" height="119.93" rx="15.4" ry="15.4"/>
  <text class="cls-9" transform="translate(178.69 82.26)"><tspan x="0" y="0">ספרות תורתית</tspan></text>
  <g>
    <path class="cls-4" d="M138.43,97.78l-.45,1.56s-23.63-.32-30.05-.32c-2.15,1.27-6.35,1.44-8.23-.34-1.83,0-29.46.13-29.46.13l-.51-1.37,34.39-.38,34.31.72Z"/>
    <path class="cls-7" d="M135.18,56.41s3.86,2,4.93,2c-.47,11.4-1.68,39.37-1.68,39.37l-68.7-.34s-1.7-29.83-1.68-39.03c8.23,0,67.13-2,67.13-2Z"/>
    <path class="cls-4" d="M71.18,96.98c.11-2.22-2.1-31.83-2.1-37.24,1.02-.04,3.09-2.01,3.66-2.56.93,0,1.98-.98,3.1-.98-.49,5.19,4.57,28.6,1.85,32.05,4.82-2.24,30.76-9.66,53.63.99.13.11-.12.22,0,.34-.73-1,3.58-23.09,1.83-33.17,1.28,0,2.02,0,2.02,0,0,0,.04,0,.1,0,.51.42,2.85,2.97,3.98,3.07,0,9.87-2.09,37.69-2.09,37.69,0,0-12.23-1.36-19.65-1.37-.36,0-1.59.02-1.84.03-.72.02-3.34.23-3.46.24-1.57.19-2.93.49-3.97.93l-3.95-.02c-.49-.07-1.01-.09-1.55,0l-3.07-.02c-3.7-1.62-15.74-1.94-26.8.08l-1.7-.06Z"/>
    <path class="cls-12" d="M135.58,53.65s.33,4.52,3.05,5.22c0,10.53-2.1,37.75-2.1,37.75l-5.15-3.37s2.35-32.82,4.19-39.6Z"/>
    <path class="cls-10" d="M136.54,96.62s-25.56-3.47-29.67.65c0,0-3.31-2.06-5.94-.17-2.4-2.23-15.97-3.05-29.12-.48.91-.86,2.92-5.32,5.9-8.4,0,0,29.18-8.95,55.7,3.4.63,1.68,2.14,4.57,3.14,5Z"/>
    <path class="cls-2" d="M106.23,93.96c8.5-3.11,12.78-3.5,25.59-1.85-6.39-1.98-18.06-3.18-25.59,1.85Z"/>
    <path class="cls-2" d="M101.69,93.96c-8.5-3.11-12.78-3.5-25.59-1.85,6.39-1.98,18.06-3.18,25.59,1.85Z"/>
    <path class="cls-12" d="M72.7,53.65s-.29,4.52-2.99,5.56c0,6.88,2.1,37.41,2.1,37.41,0,0,2.15-2.71,2.99-4.76,3.35-2.52.08-34.66-2.1-38.2Z"/>
    <path class="cls-11" d="M107.15,97.54c.08,0,.15-.06.2-.17.06-.16.03-.37-.08-.47-.13-.12-3.26-2.9-6.82-.18-.11.09-.16.29-.1.46.06.17.2.24.31.15,3.33-2.54,6.35.13,6.38.16.04.03.08.05.12.05Z"/>
    <path class="cls-1" d="M135.58,53.65c0,14.91-2.09,38.06-2.09,38.06,0,0-18.76-5.67-29.36,2.53-7.82-6.76-22.2-4.94-29.33-2.39,0-7.02-2.1-30.79-2.1-38.2,5.25-1.94,23.48-6.47,31.42-.27,6.1-6.49,27.72-1.13,31.46.27Z"/>
    <path class="cls-1" d="M132.02,90.04s1.99-21.71,2.09-36.86c-6.14-1.81-24.45-5.68-29.99.21-7.47-5.83-24.05-2.17-30.36-.1.22,9.15,2.07,30.08,2.07,36.69,6.97-2.49,19.87-2.48,27.74,3.84.18.14.36.29.54.44,10.6-8.21,27.9-4.21,27.9-4.21Z"/>
    <path class="cls-5" d="M133.07,48.62c0,14.91-2.1,38.06-2.1,38.06,0,0-16.24-.64-26.85,7.56-7.82-6.76-20.24-9.52-27.37-6.98,0-7.02-2.09-30.79-2.09-38.2,5.25-1.94,21.53-1.88,29.47,4.32,6.1-6.49,25.2-6.15,28.94-4.76Z"/>
    <path class="cls-2" d="M104.12,94.17c-.15-7.5-.27-32.23,0-40.79.4,4.87.27,33.91,0,40.79Z"/>
    <path class="cls-8" d="M74.78,91.91c-.02-6.75-2.55-35.8-2.1-38.26.36,3.45,2.41,31.89,2.1,38.26Z"/>
    <path class="cls-2" d="M73.89,92.17c-.01-5.58-2.22-26.29-1.97-35.82.22,2.85,2.16,30.54,1.97,35.82Z"/>
    <path class="cls-2" d="M73.04,93.27c-.01-5.58-2.22-20.63-1.97-30.16.22,2.85,2.16,24.88,1.97,30.16Z"/>
    <path class="cls-2" d="M72.47,87.77c-.01-5.58-1.98-19.05-1.73-28.58.22,2.85,1.93,23.3,1.73,28.58Z"/>
    <path class="cls-2" d="M135.86,93.11c-.01-5.58,1.74-24.46,1.99-33.99.22,2.85-1.8,28.72-1.99,33.99Z"/>
    <path class="cls-2" d="M135.02,93.33c-.01-5.58,1.97-20.63,2.22-30.16.22,2.85-2.03,24.88-2.22,30.16Z"/>
    <path class="cls-2" d="M134.39,87.83c-.01-5.58,1.97-20.63,2.22-30.16.22,2.85-2.03,24.88-2.22,30.16Z"/>
    <path class="cls-8" d="M133.46,91.22c-.02-6.66,1.6-35.14,2.05-37.57.36,3.4-1.74,31.28-2.05,37.57Z"/>
    <path class="cls-3" d="M138.43,97.78s-29.81-.1-31-.25c2.04-.27,28.92-.17,31,.25Z"/>
    <path class="cls-3" d="M100.55,97.49s-29.63.1-30.82-.05c2.04-.27,28.74-.37,30.82.05Z"/>
    <path class="cls-8" d="M71.8,96.62s1.99-2.91,2.97-4.71c-.44,2.38-2.97,4.71-2.97,4.71Z"/>
    <path class="cls-8" d="M136.54,96.62s-2.12-2.92-3.07-4.89c.44,2.38,3.07,4.89,3.07,4.89Z"/>
    <g>
      <path class="cls-10" d="M101.19,64.18c-.08,0-.15-.02-.23-.05-11.09-5.31-21.84-3.13-21.94-3.1-.28.06-.56-.12-.62-.4-.06-.28.12-.56.4-.62.11-.02,11.2-2.28,22.61,3.18.26.12.37.44.25.7-.09.19-.28.3-.47.3Z"/>
      <path class="cls-10" d="M101.12,68.35c-.08,0-.15-.02-.23-.05-11.08-5.3-21.42-3.13-21.52-3.1-.28.06-.56-.12-.62-.4-.06-.28.12-.56.4-.62.11-.02,10.78-2.28,22.2,3.18.26.12.37.44.25.7-.09.19-.28.3-.47.3Z"/>
      <path class="cls-10" d="M101.19,72.51c-.08,0-.15-.02-.23-.05-11.09-5.31-21-3.13-21.1-3.11-.28.07-.56-.11-.63-.39-.06-.28.11-.56.39-.63.42-.1,10.37-2.28,21.78,3.18.26.12.37.44.25.7-.09.19-.28.3-.47.3Z"/>
      <path class="cls-10" d="M101.26,76.67c-.08,0-.15-.02-.23-.05-11.09-5.31-20.79-3.13-20.89-3.11-.28.07-.56-.11-.63-.39-.07-.28.11-.56.39-.63.41-.1,10.16-2.28,21.58,3.18.26.12.37.44.25.7-.09.19-.28.3-.47.3Z"/>
      <path class="cls-10" d="M101.33,80.83c-.08,0-.15-.02-.23-.05-11.09-5.31-20.58-3.13-20.67-3.11-.28.07-.56-.11-.63-.39-.07-.28.11-.56.39-.63.4-.1,9.95-2.28,21.37,3.18.26.12.37.44.25.7-.09.19-.28.3-.47.3Z"/>
      <path class="cls-10" d="M101.4,85c-.08,0-.15-.02-.23-.05-11.07-5.3-20.37-3.13-20.46-3.11-.28.07-.56-.1-.63-.38-.07-.28.1-.56.38-.63.39-.1,9.74-2.29,21.16,3.18.26.12.37.44.25.7-.09.19-.28.3-.47.3Z"/>
    </g>
    <g>
      <path class="cls-10" d="M106.78,64.18c-.2,0-.38-.11-.47-.3-.13-.26-.01-.57.25-.7,11.41-5.46,22.5-3.21,22.61-3.18.28.06.46.34.4.62-.06.28-.34.46-.62.4-.11-.02-10.86-2.2-21.94,3.1-.07.04-.15.05-.23.05Z"/>
      <path class="cls-10" d="M106.85,68.35c-.2,0-.38-.11-.47-.3-.12-.26-.01-.57.25-.7,11.41-5.46,22.09-3.21,22.2-3.18.28.06.46.34.4.62-.06.28-.34.46-.62.4-.1-.02-10.44-2.2-21.52,3.1-.07.04-.15.05-.23.05Z"/>
      <path class="cls-10" d="M106.78,72.51c-.2,0-.38-.11-.47-.3-.13-.26-.01-.57.25-.7,11.42-5.46,21.37-3.28,21.78-3.18.28.06.46.34.39.63-.06.28-.35.46-.63.39-.1-.02-10.03-2.19-21.1,3.11-.07.03-.15.05-.23.05Z"/>
      <path class="cls-10" d="M106.71,76.67c-.2,0-.38-.11-.47-.3-.13-.26-.01-.57.25-.7,11.42-5.46,21.17-3.28,21.58-3.18.28.07.46.35.39.63-.07.28-.35.46-.63.39-.1-.02-9.82-2.19-20.89,3.11-.07.03-.15.05-.23.05Z"/>
      <path class="cls-10" d="M106.64,80.83c-.2,0-.38-.11-.47-.3-.13-.26-.01-.57.25-.7,11.42-5.46,20.97-3.28,21.37-3.18.28.07.45.35.39.63-.07.28-.35.45-.63.39-.09-.02-9.61-2.19-20.67,3.11-.07.04-.15.05-.23.05Z"/>
      <path class="cls-10" d="M106.57,85c-.2,0-.38-.11-.47-.3-.13-.26-.01-.57.25-.7,11.42-5.47,20.77-3.28,21.16-3.18.28.07.45.35.38.63-.07.28-.35.45-.63.38-.09-.02-9.4-2.19-20.46,3.11-.07.04-.15.05-.23.05Z"/>
    </g>
  </g>
</svg>